<svg viewBox="0 0 500 300" xmlns="http://www.w3.org/2000/svg">
<g fill="#FE701D" opacity="0.08">
<circle cx="120" cy="80" r="6"/>
<circle cx="250" cy="40" r="5"/>
<circle cx="400" cy="60" r="6"/>
<circle cx="80" cy="180" r="5"/>
<circle cx="220" cy="200" r="5"/>
<circle cx="300" cy="150" r="7"/>
<circle cx="420" cy="170" r="5"/>
<circle cx="160" cy="260" r="5"/>
<circle cx="350" cy="250" r="6"/>
<circle cx="460" cy="240" r="5"/>
</g>
<g stroke="#FE701D" fill="none" opacity="0.05" stroke-width="0.8">
<line x1="120" y1="80" x2="250" y2="40"/>
<line x1="250" y1="40" x2="400" y2="60"/>
<line x1="400" y1="60" x2="420" y2="170"/>
<line x1="420" y1="170" x2="300" y2="150"/>
<line x1="300" y1="150" x2="120" y2="80"/>
<line x1="300" y1="150" x2="250" y2="40"/>
<line x1="300" y1="150" x2="400" y2="60"/>
<line x1="300" y1="150" x2="80" y2="180"/>
<line x1="300" y1="150" x2="220" y2="200"/>
<line x1="300" y1="150" x2="350" y2="250"/>
<line x1="300" y1="150" x2="460" y2="240"/>
<line x1="80" y1="180" x2="120" y2="80"/>
<line x1="80" y1="180" x2="160" y2="260"/>
<line x1="220" y1="200" x2="160" y2="260"/>
<line x1="220" y1="200" x2="350" y2="250"/>
<line x1="350" y1="250" x2="460" y2="240"/>
<line x1="460" y1="240" x2="420" y2="170"/>
<line x1="120" y1="80" x2="220" y2="200"/>
<line x1="250" y1="40" x2="300" y2="150"/>
</g>
<circle cx="300" cy="150" r="12" fill="#FE701D" opacity="0.03"/>
</svg>